<svg width="179" height="51" viewBox="0 0 179 51" fill="none" xmlns="http://www.w3.org/2000/svg">
<g filter="url(#filter0_d_6207_219)">
<rect x="4" width="171" height="43" rx="4" fill="url(#paint0_linear_6207_219)"/>
<path d="M36.9874 11.4556C35.6886 10.1437 34.1416 9.10345 32.4365 8.39566C30.7315 7.68787 28.9026 7.32666 27.0566 7.33309C19.3216 7.33309 13.0174 13.6373 13.0174 21.3723C13.0174 23.8514 13.6691 26.2598 14.8874 28.3848L12.9041 35.6664L20.3416 33.7114C22.3957 34.8306 24.7049 35.4256 27.0566 35.4256C34.7916 35.4256 41.0957 29.1214 41.0957 21.3864C41.0957 17.6323 39.6366 14.1048 36.9874 11.4556ZM27.0566 33.0456C24.9599 33.0456 22.9057 32.4789 21.1066 31.4164L20.6816 31.1614L16.2616 32.3231L17.4374 28.0164L17.1541 27.5773C15.9892 25.7171 15.3707 23.567 15.3691 21.3723C15.3691 14.9406 20.6107 9.69893 27.0424 9.69893C30.1591 9.69893 33.0916 10.9173 35.2874 13.1273C36.3747 14.2095 37.2363 15.4969 37.8224 16.9146C38.4084 18.3324 38.7073 19.8523 38.7016 21.3864C38.7299 27.8181 33.4882 33.0456 27.0566 33.0456ZM33.4599 24.3189C33.1057 24.1489 31.3774 23.2989 31.0657 23.1714C30.7399 23.0581 30.5132 23.0014 30.2724 23.3414C30.0316 23.6956 29.3657 24.4889 29.1674 24.7156C28.9691 24.9564 28.7566 24.9848 28.4024 24.8006C28.0482 24.6306 26.9149 24.2481 25.5832 23.0581C24.5349 22.1231 23.8407 20.9756 23.6282 20.6214C23.4299 20.2673 23.5999 20.0831 23.7841 19.8989C23.9399 19.7431 24.1382 19.4881 24.3082 19.2898C24.4782 19.0914 24.5491 18.9356 24.6624 18.7089C24.7757 18.4681 24.7191 18.2698 24.6341 18.0998C24.5491 17.9298 23.8407 16.2014 23.5574 15.4931C23.2741 14.8131 22.9766 14.8981 22.7641 14.8839H22.0841C21.8432 14.8839 21.4749 14.9689 21.1491 15.3231C20.8374 15.6773 19.9307 16.5273 19.9307 18.2556C19.9307 19.9839 21.1916 21.6556 21.3616 21.8823C21.5316 22.1231 23.8407 25.6648 27.3541 27.1806C28.1899 27.5489 28.8416 27.7614 29.3516 27.9173C30.1874 28.1864 30.9524 28.1439 31.5616 28.0589C32.2416 27.9598 33.6441 27.2089 33.9274 26.3873C34.2249 25.5656 34.2249 24.8714 34.1257 24.7156C34.0266 24.5598 33.8141 24.4889 33.4599 24.3189Z" fill="white"/>
<path d="M48.64 21.9C48.64 22.6893 48.816 23.3827 49.168 23.98C49.5307 24.5773 50 25.0413 50.576 25.372C51.1627 25.692 51.7973 25.852 52.48 25.852C53.0133 25.852 53.4933 25.7827 53.92 25.644C54.3467 25.5053 54.7307 25.3187 55.072 25.084C55.424 24.8387 55.728 24.5667 55.984 24.268V26.508C55.5147 26.892 55.008 27.1853 54.464 27.388C53.92 27.5907 53.2373 27.692 52.416 27.692C51.5947 27.692 50.8267 27.5533 50.112 27.276C49.408 26.9987 48.7947 26.5987 48.272 26.076C47.7493 25.5533 47.3387 24.94 47.04 24.236C46.752 23.5213 46.608 22.7427 46.608 21.9C46.608 21.0573 46.752 20.284 47.04 19.58C47.3387 18.8653 47.7493 18.2467 48.272 17.724C48.7947 17.2013 49.408 16.8013 50.112 16.524C50.8267 16.2467 51.5947 16.108 52.416 16.108C53.2373 16.108 53.92 16.2093 54.464 16.412C55.008 16.6147 55.5147 16.908 55.984 17.292V19.532C55.728 19.2333 55.424 18.9667 55.072 18.732C54.7307 18.4867 54.3467 18.2947 53.92 18.156C53.4933 18.0173 53.0133 17.948 52.48 17.948C51.7973 17.948 51.1627 18.1133 50.576 18.444C50 18.764 49.5307 19.2227 49.168 19.82C48.816 20.4067 48.64 21.1 48.64 21.9ZM59.8945 15.02V27.5H58.1665V15.02H59.8945ZM62.9025 23.02C62.9025 22.476 62.7905 22.0653 62.5665 21.788C62.3532 21.5107 62.0065 21.372 61.5265 21.372C61.2065 21.372 60.9238 21.4413 60.6785 21.58C60.4332 21.7187 60.2412 21.9107 60.1025 22.156C59.9638 22.4013 59.8945 22.6893 59.8945 23.02H59.4785C59.4785 22.4333 59.5852 21.9107 59.7985 21.452C60.0118 20.9933 60.3105 20.6253 60.6945 20.348C61.0892 20.0707 61.5638 19.932 62.1185 19.932C62.6625 19.932 63.1212 20.0387 63.4945 20.252C63.8785 20.4653 64.1665 20.7853 64.3585 21.212C64.5505 21.628 64.6465 22.1507 64.6465 22.78V27.5H62.9025V23.02ZM67.9264 25.212C67.9264 25.4573 67.985 25.6707 68.1024 25.852C68.2197 26.0227 68.3797 26.1507 68.5824 26.236C68.7957 26.3213 69.0357 26.364 69.3024 26.364C69.6437 26.364 69.953 26.2947 70.2304 26.156C70.5184 26.0173 70.7477 25.8147 70.9184 25.548C71.0997 25.2707 71.1904 24.9507 71.1904 24.588L71.4464 25.548C71.4464 26.0173 71.3077 26.412 71.0304 26.732C70.7637 27.0413 70.4224 27.276 70.0064 27.436C69.601 27.5853 69.185 27.66 68.7584 27.66C68.2997 27.66 67.873 27.5693 67.4784 27.388C67.0837 27.2067 66.769 26.94 66.5344 26.588C66.2997 26.236 66.1824 25.8093 66.1824 25.308C66.1824 24.5933 66.433 24.028 66.9344 23.612C67.4357 23.1853 68.145 22.972 69.0624 22.972C69.553 22.972 69.9744 23.0253 70.3264 23.132C70.689 23.2387 70.9877 23.3667 71.2224 23.516C71.457 23.6547 71.6224 23.7827 71.7184 23.9V24.78C71.3877 24.5453 71.0357 24.3747 70.6624 24.268C70.289 24.1613 69.8944 24.108 69.4784 24.108C69.1157 24.108 68.8224 24.156 68.5984 24.252C68.3744 24.3373 68.2037 24.46 68.0864 24.62C67.9797 24.78 67.9264 24.9773 67.9264 25.212ZM67.3824 22.06L66.6784 20.844C67.009 20.6413 67.4357 20.444 67.9584 20.252C68.4917 20.06 69.0997 19.964 69.7824 19.964C70.3904 19.964 70.9237 20.0547 71.3824 20.236C71.8517 20.4173 72.2197 20.6787 72.4864 21.02C72.753 21.3507 72.8864 21.7613 72.8864 22.252V27.5H71.1904V22.588C71.1904 22.3533 71.1477 22.1613 71.0624 22.012C70.9877 21.8627 70.881 21.74 70.7424 21.644C70.6037 21.548 70.4384 21.4787 70.2464 21.436C70.0544 21.3933 69.8464 21.372 69.6224 21.372C69.281 21.372 68.9557 21.4147 68.6464 21.5C68.3477 21.5747 68.0864 21.6707 67.8624 21.788C67.649 21.8947 67.489 21.9853 67.3824 22.06ZM73.8769 20.14H78.0529V21.66H73.8769V20.14ZM75.1089 17.58H76.8209V27.5H75.1089V17.58ZM82.9375 20.14H84.8095L86.5375 24.524L88.5695 19.58L90.7295 24.54L92.4575 20.14H94.3295L90.8895 28.028L88.5855 23.052L86.3775 28.028L82.9375 20.14ZM95.3681 17.212C95.3681 16.9133 95.4748 16.6627 95.6881 16.46C95.9121 16.2573 96.1681 16.156 96.4561 16.156C96.7655 16.156 97.0215 16.2573 97.2241 16.46C97.4375 16.6627 97.5441 16.9133 97.5441 17.212C97.5441 17.5 97.4375 17.7507 97.2241 17.964C97.0215 18.1667 96.7655 18.268 96.4561 18.268C96.1681 18.268 95.9121 18.1667 95.6881 17.964C95.4748 17.7507 95.3681 17.5 95.3681 17.212ZM95.6081 20.14H97.3041V27.5H95.6081V20.14ZM98.6581 20.14H102.834V21.66H98.6581V20.14ZM99.8901 17.58H101.602V27.5H99.8901V17.58ZM105.754 15.02V27.5H104.026V15.02H105.754ZM108.762 23.02C108.762 22.476 108.65 22.0653 108.426 21.788C108.213 21.5107 107.866 21.372 107.386 21.372C107.066 21.372 106.783 21.4413 106.538 21.58C106.293 21.7187 106.101 21.9107 105.962 22.156C105.823 22.4013 105.754 22.6893 105.754 23.02H105.338C105.338 22.4333 105.445 21.9107 105.658 21.452C105.871 20.9933 106.17 20.6253 106.554 20.348C106.949 20.0707 107.423 19.932 107.978 19.932C108.522 19.932 108.981 20.0387 109.354 20.252C109.738 20.4653 110.026 20.7853 110.218 21.212C110.41 21.628 110.506 22.1507 110.506 22.78V27.5H108.762V23.02ZM118.807 27.5V25.836H124.455V27.5H118.807ZM118.807 17.964V16.3H124.455V17.964H118.807ZM118.807 22.316V20.684H124.135V22.316H118.807ZM117.639 16.3H119.495V27.5H117.639V16.3ZM130.875 20.14H132.811L130.171 23.708L132.971 27.5H131.035L129.259 24.972L127.515 27.5H125.531L128.347 23.708L125.691 20.14H127.675L129.259 22.444L130.875 20.14ZM135.753 31.02H134.009V20.14H135.753V31.02ZM141.849 23.82C141.849 24.6307 141.683 25.3293 141.353 25.916C141.022 26.492 140.585 26.9347 140.041 27.244C139.497 27.5427 138.905 27.692 138.265 27.692C137.635 27.692 137.086 27.5373 136.617 27.228C136.158 26.908 135.801 26.46 135.545 25.884C135.299 25.2973 135.177 24.6093 135.177 23.82C135.177 23.02 135.299 22.332 135.545 21.756C135.801 21.18 136.158 20.7373 136.617 20.428C137.086 20.108 137.635 19.948 138.265 19.948C138.905 19.948 139.497 20.1027 140.041 20.412C140.585 20.7107 141.022 21.148 141.353 21.724C141.683 22.3 141.849 22.9987 141.849 23.82ZM140.057 23.82C140.057 23.3293 139.955 22.9133 139.753 22.572C139.55 22.22 139.278 21.9587 138.937 21.788C138.606 21.6067 138.238 21.516 137.833 21.516C137.502 21.516 137.177 21.6067 136.857 21.788C136.537 21.9587 136.27 22.2147 136.057 22.556C135.854 22.8973 135.753 23.3187 135.753 23.82C135.753 24.3213 135.854 24.7427 136.057 25.084C136.27 25.4253 136.537 25.6867 136.857 25.868C137.177 26.0387 137.502 26.124 137.833 26.124C138.238 26.124 138.606 26.0387 138.937 25.868C139.278 25.6867 139.55 25.4253 139.753 25.084C139.955 24.732 140.057 24.3107 140.057 23.82ZM146.695 27.66C145.948 27.66 145.287 27.5 144.711 27.18C144.145 26.86 143.708 26.412 143.399 25.836C143.089 25.26 142.935 24.588 142.935 23.82C142.935 23.0413 143.089 22.364 143.399 21.788C143.719 21.212 144.167 20.7693 144.743 20.46C145.319 20.14 145.996 19.98 146.775 19.98C147.553 19.98 148.215 20.1293 148.759 20.428C149.303 20.7267 149.719 21.1587 150.007 21.724C150.305 22.2787 150.455 22.9507 150.455 23.74C150.455 23.8253 150.449 23.916 150.439 24.012C150.439 24.108 150.433 24.1773 150.423 24.22H143.959V23.036H148.951L148.423 23.772C148.455 23.708 148.487 23.6227 148.519 23.516C148.561 23.3987 148.583 23.3027 148.583 23.228C148.583 22.8333 148.503 22.492 148.343 22.204C148.193 21.916 147.98 21.692 147.703 21.532C147.436 21.372 147.121 21.292 146.759 21.292C146.321 21.292 145.948 21.388 145.639 21.58C145.329 21.772 145.095 22.0493 144.935 22.412C144.775 22.7747 144.689 23.2227 144.679 23.756C144.679 24.2893 144.759 24.7427 144.919 25.116C145.079 25.4787 145.313 25.756 145.623 25.948C145.943 26.14 146.327 26.236 146.775 26.236C147.244 26.236 147.655 26.14 148.007 25.948C148.359 25.756 148.652 25.4627 148.887 25.068L150.375 25.676C149.991 26.3373 149.495 26.8333 148.887 27.164C148.279 27.4947 147.548 27.66 146.695 27.66ZM153.816 20.14V27.5H152.104V20.14H153.816ZM156.008 21.98C155.848 21.852 155.699 21.756 155.56 21.692C155.421 21.628 155.245 21.596 155.032 21.596C154.744 21.596 154.509 21.6707 154.328 21.82C154.147 21.9693 154.013 22.1773 153.928 22.444C153.853 22.7 153.816 23.004 153.816 23.356L153.24 23.02C153.24 22.4333 153.347 21.916 153.56 21.468C153.784 21.0093 154.067 20.6467 154.408 20.38C154.76 20.1133 155.123 19.98 155.496 19.98C155.763 19.98 156.013 20.0227 156.248 20.108C156.483 20.1827 156.68 20.3213 156.84 20.524L156.008 21.98ZM157.002 20.14H161.178V21.66H157.002V20.14ZM158.234 17.58H159.946V27.5H158.234V17.58ZM162.706 25.084C162.94 25.34 163.175 25.564 163.41 25.756C163.655 25.9373 163.9 26.076 164.146 26.172C164.391 26.2573 164.636 26.3 164.882 26.3C165.191 26.3 165.431 26.2307 165.602 26.092C165.783 25.9533 165.874 25.7613 165.874 25.516C165.874 25.3027 165.804 25.1213 165.666 24.972C165.527 24.812 165.335 24.6787 165.09 24.572C164.844 24.4547 164.556 24.3373 164.226 24.22C163.895 24.092 163.564 23.9427 163.234 23.772C162.914 23.5907 162.647 23.356 162.434 23.068C162.231 22.78 162.13 22.4173 162.13 21.98C162.13 21.532 162.242 21.1587 162.466 20.86C162.7 20.5613 163.01 20.3427 163.394 20.204C163.788 20.0547 164.21 19.98 164.658 19.98C165.063 19.98 165.442 20.0387 165.794 20.156C166.156 20.2733 166.482 20.428 166.77 20.62C167.058 20.812 167.303 21.0307 167.506 21.276L166.546 22.3C166.3 22.012 166.007 21.7773 165.666 21.596C165.324 21.4147 164.972 21.324 164.61 21.324C164.364 21.324 164.162 21.3773 164.002 21.484C163.842 21.5907 163.762 21.7453 163.762 21.948C163.762 22.1187 163.831 22.2733 163.97 22.412C164.119 22.54 164.311 22.6573 164.546 22.764C164.791 22.8707 165.063 22.9827 165.362 23.1C165.767 23.26 166.14 23.436 166.482 23.628C166.823 23.82 167.095 24.0547 167.298 24.332C167.511 24.6093 167.618 24.972 167.618 25.42C167.618 26.1133 167.378 26.6733 166.898 27.1C166.428 27.516 165.788 27.724 164.978 27.724C164.476 27.724 164.012 27.6493 163.586 27.5C163.17 27.34 162.802 27.1373 162.482 26.892C162.172 26.636 161.911 26.3693 161.698 26.092L162.706 25.084Z" fill="white"/>
</g>
<defs>
<filter id="filter0_d_6207_219" x="0" y="0" width="179" height="51" filterUnits="userSpaceOnUse" color-interpolation-filters="sRGB">
<feFlood flood-opacity="0" result="BackgroundImageFix"/>
<feColorMatrix in="SourceAlpha" type="matrix" values="0 0 0 0 0 0 0 0 0 0 0 0 0 0 0 0 0 0 127 0" result="hardAlpha"/>
<feOffset dy="4"/>
<feGaussianBlur stdDeviation="2"/>
<feComposite in2="hardAlpha" operator="out"/>
<feColorMatrix type="matrix" values="0 0 0 0 0 0 0 0 0 0 0 0 0 0 0 0 0 0 0.1 0"/>
<feBlend mode="normal" in2="BackgroundImageFix" result="effect1_dropShadow_6207_219"/>
<feBlend mode="normal" in="SourceGraphic" in2="effect1_dropShadow_6207_219" result="shape"/>
</filter>
<linearGradient id="paint0_linear_6207_219" x1="-21.8018" y1="21.5" x2="191.189" y2="21.5" gradientUnits="userSpaceOnUse">
<stop stop-color="#21832D"/>
<stop offset="1" stop-color="#2BAA3B"/>
</linearGradient>
</defs>
</svg>
